<?xml version="1.0" encoding="UTF-8"?><svg xmlns="http://www.w3.org/2000/svg" width="100%" height="auto" viewBox="85 -16 54 57"><polyline stroke="black" stroke-width="2" stroke-linecap="round" fill="none" points="104,22 109,15 109,5 111,3 113,3 115,5 115,15 120,22"/><polyline stroke="hsl(275,70%,50%)" stroke-width="1" stroke-linecap="round" fill="none" points="104,22 109,15 109,5 111,3 113,3 115,5 115,15 120,22"/><polyline stroke="black" stroke-width="2" stroke-linecap="round" fill="none" points="110,13 110,5 112,3 114,3 116,5 116,13"/><polyline stroke="hsl(53,70%,50%)" stroke-width="1" stroke-linecap="round" fill="none" points="110,13 110,5 112,3 114,3 116,5 116,13"/><text x="" y="" fill="" font-size="1.0rem" text-anchor="middle" font-family="monospace" font-weight="bold" stroke="black" stroke-width="0.5"/><text x="112" y="4.25" fill="hsl(275,70%,50%)" font-size="1.0rem" text-anchor="middle" font-family="monospace" font-weight="bold" stroke="black" stroke-width="0.5">B</text><text x="" y="" fill="" font-size="1.0rem" text-anchor="middle" font-family="monospace" font-weight="bold" stroke="black" stroke-width="0.5"/><text x="113" y="0" fill="hsl(53,70%,50%)" font-size="1.0rem" text-anchor="middle" font-family="monospace" font-weight="bold" stroke="black" stroke-width="0.5">C</text></svg>