<?xml version="1.0" encoding="UTF-8"?><svg xmlns="http://www.w3.org/2000/svg" width="100%" height="auto" viewBox="-14 -14 808 428"><polygon stroke="black" fill="hsl(138,70%,50%)" fill-opacity="30%" points="0,0 780,0 780,400 0,400 0,0" stroke-dasharray="10,10"/><polygon stroke="black" fill="hsl(295,70%,50%)" fill-opacity="30%" points="460,260 480,260 480,280 460,280 460,260"/><polygon stroke="black" fill="hsl(73,70%,50%)" fill-opacity="30%" points="560,360 580,360 580,380 560,380 560,360"/><polygon stroke="black" fill="hsl(210,70%,50%)" fill-opacity="30%" points="360,320 340,320 340,340 360,340 360,320"/><polyline stroke="black" stroke-width="5" stroke-linecap="round" fill="none" points="40,40 100,100 160,120"/><polyline stroke="hsl(275,70%,50%)" stroke-width="3" stroke-linecap="round" fill="none" points="40,40 100,100 160,120"/><polyline stroke="black" stroke-width="5" stroke-linecap="round" fill="none" points="160,120 280,160 360,160"/><polyline stroke="hsl(53,70%,50%)" stroke-width="3" stroke-linecap="round" fill="none" points="160,120 280,160 360,160"/><polyline stroke="black" stroke-width="5" stroke-linecap="round" fill="none" points="260,220 380,260 460,260"/><polyline stroke="hsl(190,70%,50%)" stroke-width="3" stroke-linecap="round" fill="none" points="260,220 380,260 460,260"/><polyline stroke="black" stroke-width="5" stroke-linecap="round" fill="none" points="360,320 480,360 560,360"/><polyline stroke="hsl(328,70%,50%)" stroke-width="3" stroke-linecap="round" fill="none" points="360,320 480,360 560,360"/><circle cx="40" cy="40" r="5" stroke="black" fill="hsl(105,70%,50%)"/><circle cx="160" cy="120" r="5" stroke="black" fill="hsl(243,70%,50%)"/><circle cx="360" cy="160" r="5" stroke="black" fill="hsl(20,70%,50%)"/><circle cx="260" cy="220" r="5" stroke="black" fill="hsl(158,70%,50%)"/><text x="390" y="200" fill="hsl(138,70%,50%)" font-size="1.0rem" text-anchor="middle" font-family="monospace" font-weight="bold">A</text><text x="" y="" fill="" font-size="1.0rem" text-anchor="middle" font-family="monospace" font-weight="bold"/><text x="100" y="79.66666666666667" fill="hsl(275,70%,50%)" font-size="1.0rem" text-anchor="middle" font-family="monospace" font-weight="bold">B</text><text x="" y="" fill="" font-size="1.0rem" text-anchor="middle" font-family="monospace" font-weight="bold"/><text x="266.6666666666667" y="139.66666666666666" fill="hsl(53,70%,50%)" font-size="1.0rem" text-anchor="middle" font-family="monospace" font-weight="bold">C</text><text x="" y="" fill="" font-size="1.0rem" text-anchor="middle" font-family="monospace" font-weight="bold"/><text x="366.6666666666667" y="239.66666666666666" fill="hsl(190,70%,50%)" font-size="1.0rem" text-anchor="middle" font-family="monospace" font-weight="bold">D</text><text x="" y="" fill="" font-size="1.0rem" text-anchor="middle" font-family="monospace" font-weight="bold"/><text x="466.6666666666667" y="339.6666666666667" fill="hsl(328,70%,50%)" font-size="1.0rem" text-anchor="middle" font-family="monospace" font-weight="bold">E</text><text x="40" y="33" fill="hsl(105,70%,50%)" font-size="1.0rem" text-anchor="middle" font-family="monospace" font-weight="bold">F</text><text x="160" y="113" fill="hsl(243,70%,50%)" font-size="1.0rem" text-anchor="middle" font-family="monospace" font-weight="bold">G</text><text x="360" y="153" fill="hsl(20,70%,50%)" font-size="1.0rem" text-anchor="middle" font-family="monospace" font-weight="bold">H</text><text x="260" y="213" fill="hsl(158,70%,50%)" font-size="1.0rem" text-anchor="middle" font-family="monospace" font-weight="bold">I</text><text x="470" y="270" fill="hsl(295,70%,50%)" font-size="1.0rem" text-anchor="middle" font-family="monospace" font-weight="bold">J</text><text x="570" y="370" fill="hsl(73,70%,50%)" font-size="1.0rem" text-anchor="middle" font-family="monospace" font-weight="bold">L</text><text x="350" y="330" fill="hsl(210,70%,50%)" font-size="1.0rem" text-anchor="middle" font-family="monospace" font-weight="bold">M</text></svg>