<?xml version="1.0" encoding="UTF-8"?><svg xmlns="http://www.w3.org/2000/svg" width="100%" height="auto" viewBox="-14 -14 508 268"><polygon stroke="black" fill="hsl(138,70%,50%)" fill-opacity="30%" points="0,0 480,0 480,240 0,240 0,0" stroke-dasharray="10,10"/><polygon stroke="black" fill="hsl(105,70%,50%)" fill-opacity="30%" points="360,120 360,200 440,200 440,120 360,120"/><polyline stroke="black" stroke-width="5" stroke-linecap="round" fill="none" points="40,40 100,100 160,120"/><polyline stroke="hsl(275,70%,50%)" stroke-width="3" stroke-linecap="round" fill="none" points="40,40 100,100 160,120"/><polyline stroke="black" stroke-width="5" stroke-linecap="round" fill="none" points="160,120 280,160 360,160"/><polyline stroke="hsl(53,70%,50%)" stroke-width="3" stroke-linecap="round" fill="none" points="160,120 280,160 360,160"/><circle cx="40" cy="40" r="5" stroke="black" fill="hsl(190,70%,50%)"/><circle cx="160" cy="120" r="5" stroke="black" fill="hsl(328,70%,50%)"/><text x="240" y="120" fill="hsl(138,70%,50%)" font-size="1.0rem" text-anchor="middle" font-family="monospace" font-weight="bold">A</text><text x="" y="" fill="" font-size="1.0rem" text-anchor="middle" font-family="monospace" font-weight="bold"/><text x="100" y="79.66666666666667" fill="hsl(275,70%,50%)" font-size="1.0rem" text-anchor="middle" font-family="monospace" font-weight="bold">B</text><text x="" y="" fill="" font-size="1.0rem" text-anchor="middle" font-family="monospace" font-weight="bold"/><text x="266.6666666666667" y="139.66666666666666" fill="hsl(53,70%,50%)" font-size="1.0rem" text-anchor="middle" font-family="monospace" font-weight="bold">C</text><text x="40" y="33" fill="hsl(190,70%,50%)" font-size="1.0rem" text-anchor="middle" font-family="monospace" font-weight="bold">D</text><text x="160" y="113" fill="hsl(328,70%,50%)" font-size="1.0rem" text-anchor="middle" font-family="monospace" font-weight="bold">E</text><text x="400" y="160" fill="hsl(105,70%,50%)" font-size="1.0rem" text-anchor="middle" font-family="monospace" font-weight="bold">F</text></svg>