<?xml version="1.0" encoding="UTF-8"?><svg xmlns="http://www.w3.org/2000/svg" width="100%" height="auto" viewBox="120 0 305 305"><polygon stroke="black" fill="hsl(138,70%,50%)" fill-opacity="30%" points="160,200 320,200 240,140 360,40 230,70 180,120 160,200" stroke-dasharray="10,10"/><polygon stroke="black" fill="hsl(158,70%,50%)" fill-opacity="30%" points="220,100 260,110 290,90 280,70 240,80 220,100"/><polygon stroke="black" fill="hsl(295,70%,50%)" fill-opacity="30%" points="200,140 250,160 250,120 200,140"/><polygon stroke="black" fill="hsl(73,70%,50%)" fill-opacity="30%" points="240,240 310,300 390,220 320,160 240,240"/><polygon stroke="black" fill="hsl(210,70%,50%)" fill-opacity="30%" points="120,240 400,240 400,0 120,0"/><polyline stroke="hsl(190,70%,50%)" stroke-width="5" stroke-linecap="round" fill="none" points="190,140 210,110"/><polyline stroke="hsl(328,70%,50%)" stroke-width="5" stroke-linecap="round" fill="none" points="320,60 420,110"/><polyline stroke="hsl(105,70%,50%)" stroke-width="5" stroke-linecap="round" fill="none" points="270,20 350,120"/><polyline stroke="hsl(243,70%,50%)" stroke-width="5" stroke-linecap="round" fill="none" points="170,300 190,200"/><polyline stroke="hsl(20,70%,50%)" stroke-width="5" stroke-linecap="round" fill="none" points="190,250 200,200 220,200 230,250"/><circle cx="200" cy="160" r="5" stroke="black" fill="hsl(275,70%,50%)"/><circle cx="170" cy="160" r="5" stroke="black" fill="hsl(53,70%,50%)"/><text x="160" y="200" fill="black" text-anchor="middle">A</text><text x="200" y="160" fill="black" text-anchor="middle">B</text><text x="170" y="160" fill="black" text-anchor="middle">C</text><text x="200" y="125" fill="black" text-anchor="middle">D</text><text x="370" y="85" fill="black" text-anchor="middle">E</text><text x="310" y="70" fill="black" text-anchor="middle">F</text><text x="180" y="250" fill="black" text-anchor="middle">G</text><text x="210" y="225" fill="black" text-anchor="middle">H</text><text x="220" y="100" fill="black" text-anchor="middle">I</text><text x="200" y="140" fill="black" text-anchor="middle">J</text><text x="240" y="240" fill="black" text-anchor="middle">K</text><text x="120" y="240" fill="black" text-anchor="middle">L</text></svg>