<?xml version="1.0" encoding="UTF-8"?><svg xmlns="http://www.w3.org/2000/svg" width="100%" height="auto" viewBox="106 -14 333 333"><polygon stroke="black" fill="hsl(138,70%,50%)" fill-opacity="30%" points="160,200 320,200 240,140 360,40 230,70 180,120 160,200" stroke-dasharray="10,10"/><polygon stroke="black" fill="hsl(158,70%,50%)" fill-opacity="30%" points="220,100 260,110 290,90 280,70 240,80 220,100"/><polygon stroke="black" fill="hsl(295,70%,50%)" fill-opacity="30%" points="200,140 250,160 250,120 200,140"/><polygon stroke="black" fill="hsl(73,70%,50%)" fill-opacity="30%" points="240,240 310,300 390,220 320,160 240,240"/><polygon stroke="black" fill="hsl(210,70%,50%)" fill-opacity="30%" points="120,240 400,240 400,0 120,0"/><polyline stroke="black" stroke-width="5" stroke-linecap="round" fill="none" points="190,140 210,110"/><polyline stroke="hsl(190,70%,50%)" stroke-width="3" stroke-linecap="round" fill="none" points="190,140 210,110"/><polyline stroke="black" stroke-width="5" stroke-linecap="round" fill="none" points="320,60 420,110"/><polyline stroke="hsl(328,70%,50%)" stroke-width="3" stroke-linecap="round" fill="none" points="320,60 420,110"/><polyline stroke="black" stroke-width="5" stroke-linecap="round" fill="none" points="270,20 350,120"/><polyline stroke="hsl(105,70%,50%)" stroke-width="3" stroke-linecap="round" fill="none" points="270,20 350,120"/><polyline stroke="black" stroke-width="5" stroke-linecap="round" fill="none" points="170,300 190,200"/><polyline stroke="hsl(243,70%,50%)" stroke-width="3" stroke-linecap="round" fill="none" points="170,300 190,200"/><polyline stroke="black" stroke-width="5" stroke-linecap="round" fill="none" points="190,250 200,200 220,200 230,250"/><polyline stroke="hsl(20,70%,50%)" stroke-width="3" stroke-linecap="round" fill="none" points="190,250 200,200 220,200 230,250"/><circle cx="200" cy="160" r="5" stroke="black" fill="hsl(275,70%,50%)"/><circle cx="170" cy="160" r="5" stroke="black" fill="hsl(53,70%,50%)"/><text x="248.33333333333334" y="128.33333333333334" fill="hsl(138,70%,50%)" font-size="1.0rem" text-anchor="middle" font-family="monospace" font-weight="bold">A</text><text x="200" y="153" fill="hsl(275,70%,50%)" font-size="1.0rem" text-anchor="middle" font-family="monospace" font-weight="bold">B</text><text x="170" y="153" fill="hsl(53,70%,50%)" font-size="1.0rem" text-anchor="middle" font-family="monospace" font-weight="bold">C</text><text x="" y="" fill="" font-size="1.0rem" text-anchor="middle" font-family="monospace" font-weight="bold"/><text x="200" y="118" fill="hsl(190,70%,50%)" font-size="1.0rem" text-anchor="middle" font-family="monospace" font-weight="bold">D</text><text x="" y="" fill="" font-size="1.0rem" text-anchor="middle" font-family="monospace" font-weight="bold"/><text x="370" y="78" fill="hsl(328,70%,50%)" font-size="1.0rem" text-anchor="middle" font-family="monospace" font-weight="bold">E</text><text x="" y="" fill="" font-size="1.0rem" text-anchor="middle" font-family="monospace" font-weight="bold"/><text x="310" y="63" fill="hsl(105,70%,50%)" font-size="1.0rem" text-anchor="middle" font-family="monospace" font-weight="bold">F</text><text x="" y="" fill="" font-size="1.0rem" text-anchor="middle" font-family="monospace" font-weight="bold"/><text x="180" y="243" fill="hsl(243,70%,50%)" font-size="1.0rem" text-anchor="middle" font-family="monospace" font-weight="bold">G</text><text x="" y="" fill="" font-size="1.0rem" text-anchor="middle" font-family="monospace" font-weight="bold"/><text x="210" y="218" fill="hsl(20,70%,50%)" font-size="1.0rem" text-anchor="middle" font-family="monospace" font-weight="bold">H</text><text x="258" y="90" fill="hsl(158,70%,50%)" font-size="1.0rem" text-anchor="middle" font-family="monospace" font-weight="bold">I</text><text x="233.33333333333334" y="140" fill="hsl(295,70%,50%)" font-size="1.0rem" text-anchor="middle" font-family="monospace" font-weight="bold">J</text><text x="315" y="230" fill="hsl(73,70%,50%)" font-size="1.0rem" text-anchor="middle" font-family="monospace" font-weight="bold">K</text><text x="306.6666666666667" y="160" fill="hsl(210,70%,50%)" font-size="1.0rem" text-anchor="middle" font-family="monospace" font-weight="bold">L</text></svg>